<svg width="97" height="97" viewBox="0 0 97 97" fill="none" xmlns="http://www.w3.org/2000/svg">
<path d="M48.5 97C75.2858 97 97 75.2858 97 48.5C97 21.7142 75.2858 0 48.5 0C21.7142 0 0 21.7142 0 48.5C0 75.2858 21.7142 97 48.5 97Z" fill="#EB6D4A"/>
<path d="M70.083 27.2129V43.3322C70.083 43.5657 70.0773 43.7987 70.0722 44.0318C70.0618 44.5143 70.035 44.9964 69.9928 45.4733C69.9824 45.6377 69.966 45.8017 69.9448 45.9661C69.8757 46.6497 69.7809 47.3231 69.6587 47.9912C69.6159 48.2139 69.5736 48.431 69.5257 48.6485C69.5205 48.696 69.5102 48.7388 69.4994 48.781C69.4566 49.0037 69.4035 49.2213 69.3509 49.4384C69.3298 49.5549 69.2978 49.6714 69.2715 49.7884C69.2447 49.889 69.2184 49.99 69.187 50.0905C69.0751 50.5251 68.9483 50.9494 68.8152 51.3732C68.7518 51.5748 68.6884 51.7707 68.6193 51.9723C68.6137 51.9934 68.6033 52.0146 68.5982 52.0357C68.5343 52.2156 68.4709 52.3961 68.4074 52.576C68.3863 52.6291 68.3652 52.6817 68.3435 52.7405C68.2801 52.9101 68.2167 53.0797 68.1476 53.2493C68.0682 53.4561 67.9837 53.6576 67.8986 53.8592C67.8244 54.0397 67.745 54.2196 67.6656 54.4C67.6552 54.432 67.6388 54.4583 67.6284 54.4897C67.5382 54.6805 67.4537 54.8718 67.3634 55.0568C67.2732 55.2528 67.1778 55.4492 67.0768 55.6456C66.886 56.0323 66.6793 56.4194 66.4726 56.7958C66.3772 56.9654 66.2818 57.135 66.1859 57.3046C65.3698 58.7095 64.4635 60.0293 63.4777 61.2481C63.3447 61.4229 63.2076 61.5925 63.0643 61.757C62.8678 61.9951 62.6663 62.2287 62.4652 62.4566C62.2848 62.6581 62.1048 62.8592 61.9192 63.0556C61.4104 63.6016 60.8907 64.1213 60.3607 64.609C60.255 64.7152 60.1432 64.8106 60.0318 64.9111C59.8519 65.0756 59.6719 65.2343 59.4858 65.388C59.343 65.5153 59.1945 65.637 59.0455 65.7592C58.664 66.0716 58.2825 66.3737 57.8959 66.6547C57.7366 66.7769 57.5721 66.8934 57.4081 67.0047C57.1432 67.1955 56.873 67.3759 56.6023 67.5507C56.4539 67.6512 56.3002 67.7466 56.1461 67.8368C55.6053 68.1709 55.0598 68.4782 54.519 68.7432C54.3865 68.8118 54.254 68.8757 54.1215 68.9391C53.9885 69.0025 53.8514 69.0664 53.708 69.1299C53.5327 69.2092 53.358 69.2835 53.1832 69.3526C53.1141 69.3845 53.045 69.4108 52.9765 69.432C52.7702 69.517 52.5578 69.5964 52.3511 69.665C52.0913 69.7604 51.8263 69.8398 51.567 69.914C51.3865 69.9671 51.2014 70.0145 51.021 70.0568C51.0102 70.0625 50.9998 70.0676 50.9839 70.0676C50.8034 70.1099 50.6235 70.1527 50.443 70.1842C50.3951 70.195 50.3482 70.2053 50.3002 70.2104C50.1518 70.2367 50.0033 70.2635 49.8548 70.2795C49.6429 70.3115 49.431 70.3378 49.2191 70.3486C49.1454 70.3589 49.0763 70.3646 49.0016 70.3646C48.8325 70.3754 48.6628 70.3806 48.4979 70.3806H48.4824C48.3179 70.3806 48.1535 70.3754 47.9895 70.3646C47.9256 70.3646 47.8622 70.3594 47.7983 70.3486C47.6503 70.3435 47.4962 70.327 47.3374 70.3058C47.3054 70.3058 47.2683 70.3007 47.2368 70.2955C47.0404 70.2692 46.8445 70.2373 46.6429 70.2001C46.4738 70.1738 46.3042 70.1362 46.1289 70.0939C45.2226 69.8872 44.2899 69.5748 43.3465 69.1556C42.5407 68.8004 41.7246 68.3715 40.9136 67.8729C40.5053 67.6239 40.097 67.3589 39.6943 67.078C39.4927 66.9346 39.2917 66.7918 39.0901 66.6433C38.4591 66.1819 37.8337 65.6787 37.2186 65.1379C37.0495 64.9843 36.8799 64.8307 36.7103 64.6714C36.5407 64.5177 36.3711 64.3589 36.2066 64.2053C35.7926 63.8078 35.39 63.3943 34.9976 62.9649C34.844 62.8009 34.6904 62.6313 34.5362 62.456C34.1124 61.9791 33.699 61.4863 33.3066 60.9718C33.1525 60.7862 33.0097 60.5954 32.8663 60.4047C32.3312 59.6947 31.8224 58.9524 31.345 58.1837C31.2181 57.9769 31.0908 57.7645 30.9691 57.5583C30.8206 57.3093 30.6778 57.0551 30.5345 56.8004C30.0045 55.8462 29.5163 54.8553 29.0925 53.8319C29.0291 53.6834 28.9652 53.5349 28.9121 53.387C28.827 53.1962 28.7528 52.9998 28.6842 52.809C28.5785 52.5281 28.478 52.2471 28.3821 51.9661C28.2867 51.6851 28.197 51.399 28.1068 51.1129C28.0217 50.8371 27.9423 50.5617 27.8681 50.2808C27.783 49.9838 27.7041 49.6817 27.635 49.3744C27.6294 49.3425 27.6191 49.311 27.6139 49.2791C27.5134 48.8553 27.4232 48.4258 27.3438 47.9912C27.2376 47.4184 27.153 46.8353 27.0891 46.2471C27.0628 46.0615 27.0468 45.8759 27.0308 45.6903C27.0097 45.4944 26.9942 45.3031 26.9834 45.1072C26.9566 44.752 26.9406 44.3916 26.9298 44.0313C26.9246 43.7977 26.9189 43.5647 26.9189 43.3317V27.2129C26.9189 15.3027 36.5716 5.64535 48.4819 5.63452H48.503C50.1466 5.63452 51.7469 5.8196 53.2837 6.16451C54.6886 6.4826 56.0404 6.93835 57.3231 7.51628C59.0723 8.30095 60.6994 9.30783 62.1626 10.5111C63.3922 11.5185 64.5109 12.6527 65.4858 13.9035C68.3657 17.5716 70.083 22.1884 70.083 27.2129Z" fill="#ECC19C"/>
<path d="M76.6176 103.492V103.498H20.3838V103.492C20.3838 100.318 20.9086 97.2588 21.884 94.4125C22.0588 93.8985 22.2496 93.3896 22.4563 92.8859V92.8808C22.6625 92.3771 22.8801 91.8842 23.1131 91.3965C24.0411 89.4405 25.1965 87.6118 26.5374 85.9368C26.8766 85.5182 27.221 85.1099 27.5768 84.7175C27.7515 84.5159 27.9371 84.32 28.1227 84.1241C28.3083 83.9334 28.4939 83.7426 28.6847 83.5519C29.6338 82.6032 30.651 81.734 31.7223 80.9334C32.2575 80.5359 32.7983 80.1647 33.3602 79.8043C33.9222 79.4491 34.4944 79.1099 35.0775 78.7918C35.0884 78.7815 35.0987 78.7815 35.0987 78.7815C35.3265 78.6598 35.5493 78.5273 35.772 78.3891C36.2123 78.1241 36.6464 77.838 37.0603 77.5307C37.2722 77.3822 37.4738 77.2286 37.6749 77.0642C38.1518 76.6826 38.6127 76.2743 39.0529 75.8449C39.1958 75.7021 39.3396 75.5587 39.4824 75.4103C39.7788 75.1025 40.0598 74.7792 40.3305 74.4508C40.4635 74.292 40.596 74.1276 40.7177 73.9631C40.845 73.7992 40.9667 73.6295 41.0889 73.4594C42.0323 72.1448 42.7902 70.6981 43.347 69.1551C44.0203 67.2785 44.3858 65.2591 44.3858 63.1494L48.4834 63.1706L52.697 63.1917C52.697 65.2745 53.0522 67.2728 53.7096 69.1283C54.2561 70.676 55.0134 72.1231 55.9414 73.4378C56.906 74.805 58.0562 76.0243 59.36 77.0683C59.5564 77.2276 59.7523 77.3812 59.9488 77.524C60.1395 77.6673 60.3354 77.805 60.537 77.9375C60.5798 77.9695 60.6164 77.9958 60.6592 78.0226C60.85 78.1499 61.0407 78.2772 61.2423 78.3938C61.4593 78.5263 61.6826 78.6588 61.9048 78.7809C61.9414 78.7913 61.9739 78.8072 62.0001 78.8289C62.4667 79.0887 62.9281 79.3589 63.3787 79.6399C63.5958 79.7723 63.8133 79.91 64.0252 80.0641C64.4655 80.3503 64.895 80.6524 65.3131 80.9705C65.3131 80.9762 65.3188 80.9762 65.3188 80.9762H65.3239C66.3947 81.7763 67.4073 82.6507 68.3559 83.5946C73.464 88.6826 76.6176 95.7111 76.6176 103.492Z" fill="#ECC19C"/>
<path d="M76.6186 103.493H20.3848C20.3848 100.318 20.9101 97.2599 21.885 94.4136C22.0598 93.8991 22.2505 93.3907 22.4573 92.887C22.4516 92.8814 22.4573 92.8814 22.4573 92.8814C22.6589 92.3777 22.8811 91.8848 23.1141 91.3976C24.0421 89.4416 25.1974 87.6129 26.5384 85.9379C26.8776 85.5188 27.2225 85.111 27.5777 84.7186C27.7525 84.5171 27.9381 84.3211 28.1237 84.1252C28.3093 83.9345 28.4949 83.7437 28.6857 83.553C29.6348 82.6044 30.652 81.7346 31.7233 80.9345C32.2584 80.537 32.7992 80.1658 33.3612 79.8054C33.9232 79.4451 34.4954 79.1058 35.0785 78.7877C35.0893 78.7774 35.0996 78.7826 35.0996 78.7826V78.7774C35.3275 78.6501 35.5502 78.5227 35.773 78.3902C36.4354 77.9876 37.0721 77.5422 37.6655 77.0544C37.6707 77.0596 37.6707 77.0596 37.6764 77.0647C40.4217 79.874 44.2435 81.6176 48.4844 81.6284H48.5267C52.7671 81.6284 56.6048 79.8791 59.361 77.0699L59.3667 77.0647C59.7425 77.3772 60.1348 77.669 60.538 77.9391C60.5803 77.9706 60.6174 77.9974 60.6597 78.0237C60.8504 78.151 61.0463 78.2727 61.2427 78.3949C61.4603 78.5274 61.683 78.6547 61.9052 78.7764C61.9423 78.7867 61.9686 78.8078 62.0006 78.8238C62.4672 79.0836 62.9286 79.3538 63.3792 79.6399C63.5962 79.7724 63.8138 79.9101 64.0257 80.0642C64.466 80.3452 64.8954 80.6525 65.3135 80.9706H65.3244C66.4008 81.7764 67.4129 82.6508 68.3563 83.5942C73.4649 88.6837 76.6186 95.7122 76.6186 103.493Z" fill="#C7D4E2"/>
<path d="M70.0835 43.3322C70.0835 43.5657 70.0778 43.7988 70.0727 44.0318C70.0624 44.5143 70.0356 44.9964 69.9933 45.4733C69.983 45.6377 69.9665 45.8017 69.9453 45.9661C69.8763 46.6498 69.7814 47.3231 69.6592 47.9912C69.6164 48.2139 69.5741 48.431 69.5262 48.6485C69.521 48.696 69.5107 48.7388 69.4999 48.781C69.4571 49.0038 69.404 49.2213 69.3514 49.4384C69.3246 49.5657 69.2932 49.6874 69.2555 49.8096C69.2401 49.9049 69.2133 50.0003 69.187 50.0905C69.0751 50.5251 68.9483 50.9495 68.8153 51.3732C68.7518 51.5748 68.6884 51.7707 68.6193 51.9723C68.6137 51.9934 68.6034 52.0146 68.5982 52.0357C68.5343 52.2156 68.4709 52.3961 68.4075 52.576C68.3863 52.6291 68.3652 52.6817 68.3435 52.7405C68.2801 52.9101 68.2167 53.0797 68.1476 53.2493C68.0682 53.4561 67.9837 53.6576 67.8986 53.8592C67.8244 54.0397 67.745 54.2196 67.6656 54.4C67.6553 54.432 67.6388 54.4583 67.6285 54.4897C67.5382 54.6805 67.4537 54.8718 67.3635 55.0568C67.2732 55.2528 67.1779 55.4492 67.0768 55.6456C66.8861 56.0323 66.6793 56.4195 66.4726 56.7958C66.3772 56.9654 66.2818 57.135 66.1859 57.3047C65.3698 58.7095 64.4635 60.0293 63.4777 61.2481C63.3447 61.4229 63.2076 61.5925 63.0643 61.757C62.8678 61.9951 62.6663 62.2287 62.4652 62.4566C62.2848 62.6581 62.1048 62.8592 61.9192 63.0556C61.4104 63.6016 60.8907 64.1213 60.3607 64.609C60.255 64.7152 60.1432 64.8106 60.0318 64.9111C59.8519 65.0756 59.6719 65.2343 59.4858 65.388C59.343 65.5153 59.1945 65.637 59.0455 65.7592C58.664 66.0716 58.2825 66.3737 57.8959 66.6547C57.7366 66.7769 57.5721 66.8934 57.4082 67.0047C57.1432 67.1955 56.873 67.3759 56.6024 67.5507C56.4539 67.6513 56.3002 67.7466 56.1461 67.8368C55.6053 68.1709 55.0598 68.4782 54.519 68.7432C54.3865 68.8118 54.254 68.8757 54.1215 68.9391C53.9885 69.0025 53.8514 69.0664 53.708 69.1299C53.5328 69.2093 53.358 69.2835 53.1832 69.3526C53.1141 69.3845 53.045 69.4108 52.9765 69.432C52.7703 69.517 52.5578 69.5964 52.3511 69.665C52.0913 69.7604 51.8263 69.8398 51.567 69.914C51.3865 69.9671 51.2014 70.0145 51.021 70.0568C51.0102 70.0625 50.9998 70.0676 50.9839 70.0676C50.8034 70.1099 50.6235 70.1527 50.4431 70.1842C50.3951 70.195 50.3482 70.2053 50.3002 70.2104C50.1518 70.2367 50.0033 70.2636 49.8548 70.2795C49.6429 70.3115 49.431 70.3378 49.2191 70.3486C49.1454 70.3589 49.0763 70.3646 49.0016 70.3646C48.8325 70.3754 48.6629 70.3806 48.4979 70.3806H48.4824C48.3179 70.3806 48.1535 70.3754 47.9895 70.3646C47.9256 70.3646 47.8622 70.3594 47.7983 70.3486C47.6503 70.3435 47.4962 70.327 47.3374 70.3058C47.3054 70.3058 47.2683 70.3007 47.2368 70.2955C47.0404 70.2692 46.8445 70.2373 46.6429 70.2001C46.4738 70.1738 46.3042 70.1362 46.1289 70.0939C45.2226 69.8872 44.2899 69.5748 43.3465 69.1556C42.5407 68.8004 41.7246 68.3715 40.9136 67.8729C40.5053 67.6291 40.1026 67.3641 39.6943 67.078C39.4927 66.9346 39.2917 66.7918 39.0901 66.6434C38.4591 66.1819 37.8337 65.6788 37.2186 65.1379C37.0495 64.9843 36.8799 64.8307 36.7103 64.6714C36.5407 64.5177 36.3711 64.3589 36.2066 64.2053C35.7926 63.8078 35.39 63.3943 34.9976 62.9649C34.844 62.8009 34.6904 62.6313 34.5362 62.456C34.1124 61.9792 33.699 61.4863 33.3066 60.9718C33.1525 60.7862 33.0097 60.5954 32.8663 60.4047C32.3312 59.6947 31.8224 58.9524 31.345 58.1837C31.2181 57.9769 31.0908 57.7645 30.9691 57.5583C30.8206 57.3093 30.6778 57.0551 30.5345 56.8004C30.0045 55.8462 29.5163 54.8553 29.0925 53.8319C29.0291 53.6834 28.9652 53.5349 28.9121 53.387C28.827 53.1962 28.7528 52.9998 28.6842 52.809C28.5785 52.5281 28.478 52.2471 28.3821 51.9661C28.2867 51.6851 28.197 51.399 28.1068 51.1129C28.0217 50.8371 27.9423 50.5618 27.8681 50.2808C27.783 49.9838 27.7041 49.6817 27.635 49.3744C27.6294 49.3425 27.6191 49.311 27.6139 49.2791C27.5134 48.8553 27.4232 48.4258 27.3438 47.9912C27.2376 47.4184 27.153 46.8354 27.0891 46.2471C27.0628 46.0615 27.0468 45.8759 27.0308 45.6903C27.0097 45.4944 26.9942 45.3031 26.9834 45.1072C26.9566 44.752 26.9406 44.3916 26.9298 44.0313C26.9246 43.7977 26.9189 43.5647 26.9189 43.3317L30.3649 50.106L36.2855 52.6874L43.2872 53.3184L48.4819 53.7901H48.5139L53.3745 54.2304L64.2036 55.2058L70.0835 43.3322Z" fill="#543E36"/>
<path d="M65.4873 13.9034C64.4324 16.294 63.0595 18.515 61.4376 20.5292C61.3422 20.6463 61.2468 20.7628 61.1463 20.8793C57.8231 24.881 53.4661 27.9929 48.4833 29.8107C47.1738 30.2933 45.8226 30.6851 44.4337 30.9769C43.5062 31.1728 42.5627 31.327 41.6033 31.4383C40.5005 31.56 39.3771 31.6239 38.2378 31.6239C36.9339 31.6239 35.6564 31.5388 34.4005 31.3749C33.1704 31.2213 31.9671 30.9934 30.7906 30.6861C30.1173 30.5165 29.46 30.3206 28.8078 30.103C28.1665 29.8911 27.5411 29.6576 26.9209 29.4034V27.2144C26.9209 15.3041 36.5736 5.64681 48.4838 5.63599H48.505C50.1486 5.63599 51.7488 5.82107 53.2857 6.16597C54.6906 6.48407 56.0424 6.93982 57.325 7.51775C59.0743 8.30242 60.7014 9.30929 62.1645 10.5126C63.3936 11.5179 64.5123 12.6526 65.4873 13.9034Z" fill="#543E36"/>
<path d="M70.0826 27.2129V31.4585C66.4036 28.6121 63.3562 25.0131 61.1563 20.9C61.1512 20.8948 61.1512 20.884 61.1455 20.8788C58.9833 16.84 57.6418 12.3078 57.3242 7.51575C59.0735 8.30042 60.7006 9.30729 62.1637 10.5106C63.3933 11.518 64.512 12.6522 65.4869 13.9029C68.3653 17.5716 70.0826 22.1883 70.0826 27.2129Z" fill="#543E36"/>
<path d="M29.4487 28.8776C29.2213 29.2751 29.0141 29.6834 28.8074 30.1021C28.7285 30.266 28.6486 30.4413 28.5692 30.6109C27.5252 32.9324 26.9998 35.2117 26.9256 37.2687C26.9256 37.327 26.9199 37.3904 26.9199 37.4492V29.1375C26.9199 28.8405 26.9307 28.5487 26.9307 28.2626C27.7685 28.4801 28.6058 28.692 29.4487 28.8776Z" fill="#543E36"/>
<path d="M67.5654 28.8776C67.8861 29.4411 68.1722 30.0186 68.447 30.6104C69.5235 33.0041 70.0504 35.3421 70.0958 37.4507V29.1349C70.0958 28.8426 70.0849 28.5503 70.0849 28.2646C69.2482 28.4807 68.4125 28.6895 67.5654 28.8776Z" fill="#543E36"/>
<path d="M67.523 31.0192C67.523 30.929 67.454 30.8496 67.3637 30.8388C66.6007 30.7222 63.1656 30.25 59.4712 30.25C55.2782 30.25 49.8664 31.5647 48.923 31.5647H48.0857C47.6454 31.5647 46.2359 31.2785 44.4335 30.9764C42.361 30.6264 39.7745 30.25 37.5375 30.25C34.8345 30.25 32.2686 30.5047 30.79 30.6846C30.2492 30.7485 29.8517 30.8063 29.6449 30.8382C29.5547 30.8491 29.4856 30.9285 29.4856 31.0187L29.4434 33.2711C29.4434 33.3505 29.4913 33.4196 29.565 33.4516L29.8192 33.5418C30.1955 33.6851 30.1641 40.4749 32.1887 42.1711C33.392 43.1728 34.4628 43.7451 38.9733 43.7451C41.5867 43.7451 43.2297 43.0403 44.7882 40.9358C45.9121 39.4253 46.9082 35.8525 46.9082 35.8525C47.2103 34.3791 48.3074 34.2625 48.4827 34.2517C48.4935 34.2517 48.5038 34.2517 48.5038 34.2517C48.5404 34.2517 49.7762 34.2728 50.0995 35.8525C50.0995 35.8525 51.096 39.4253 52.2194 40.9358C53.7774 43.0403 55.421 43.7451 58.0338 43.7451C62.5449 43.7451 63.6152 43.1728 64.8185 42.1711C66.8435 40.4749 66.8116 33.6851 67.1879 33.5418L67.4426 33.4516C67.5163 33.4196 67.5643 33.351 67.5643 33.2711L67.523 31.0192ZM44.7888 39.0546C44.1263 40.6234 42.4141 42.6485 40.0024 42.7702C32.7671 43.1357 32.433 41.1163 31.9665 39.5155C31.4947 37.9147 31.3731 36.5098 31.5582 34.909C31.7489 33.3083 32.1521 32.3699 32.8785 31.8982C33.1909 31.6915 33.5307 31.5059 34.3999 31.3734C35.1789 31.2569 36.3822 31.1878 38.3856 31.1878C39.5461 31.1878 40.6329 31.278 41.6026 31.4368C44.1789 31.8503 45.9173 32.7252 45.9173 33.5887C45.9173 34.178 45.7688 36.7325 44.7888 39.0546ZM65.0417 39.5155C64.5756 41.1163 64.2416 43.1357 57.0063 42.7702C54.5945 42.6485 52.8824 40.6234 52.2199 39.0546C51.2393 36.7331 51.0914 34.178 51.0914 33.5897C51.0914 32.4024 54.3883 31.1883 58.6231 31.1883C62.8583 31.1883 63.5363 31.5064 64.1307 31.8987C64.8566 32.3705 65.2593 33.3088 65.4505 34.9096C65.6361 36.5103 65.5139 37.9152 65.0417 39.5155Z" fill="#1A1A1A"/>
<path d="M48.5257 46.7347L48.52 51.9614L48.5148 53.7901V55.2264L48.5092 59.9968V60.0019L48.504 59.9968H48.4983L48.4829 59.986L27.636 49.3749C27.6304 49.3429 27.62 49.3115 27.6149 49.2795C27.5144 48.8557 27.4241 48.4263 27.3447 47.9917C27.2385 47.4189 27.154 46.8358 27.0901 46.2476C27.0638 46.062 27.0478 45.8764 27.0318 45.6908C27.0107 45.4948 26.9952 45.3036 26.9844 45.1077C26.9576 44.7525 26.9416 44.3921 26.9307 44.0317C26.9256 43.7982 26.9199 43.5651 26.9199 43.3321V36.998C26.9199 37.0883 26.9256 37.1785 26.9256 37.2682C26.9679 38.7999 27.2117 40.4858 27.6835 42.2082C28.0495 43.5332 28.5052 44.7576 29.0352 45.8495V45.8547C30.4241 48.7439 32.2848 50.7045 33.9964 51.0226C34.1026 51.0386 34.2139 51.0489 34.3201 51.0597C34.9826 51.1339 35.6771 51.1762 36.3927 51.1762C39.0957 51.1762 41.4971 49.0032 43.0077 48.1231C43.0185 48.118 43.0288 48.1123 43.0397 48.1071C43.1191 48.0592 43.199 48.0118 43.2675 47.9638C43.2887 47.9478 43.3098 47.9375 43.331 47.9267C44.6033 47.2003 46.4372 46.7394 48.4834 46.7342H48.5257V46.7347Z" fill="#543E36"/>
<path d="M70.0881 36.998L70.0829 43.3321C70.0829 44.9226 69.9345 46.4806 69.6592 47.9917C69.5473 48.5959 69.4205 49.1944 69.272 49.7884L64.3794 56.854L48.5097 59.9973H48.5045L48.4989 60.0025V59.9973L48.4834 46.7337H48.5257C50.5719 46.7389 52.4109 47.2003 53.6833 47.9262C53.7044 47.937 53.7199 47.9473 53.7415 47.9633C53.8157 48.0113 53.8951 48.0587 53.9745 48.1066C53.9797 48.1118 53.99 48.1175 54.0008 48.1226C55.5171 49.0027 57.9128 51.1773 60.6164 51.1773C61.332 51.1773 62.0259 51.135 62.6884 51.0607C62.7998 51.0499 62.906 51.0396 63.0173 51.0236C64.7243 50.7055 66.5901 48.7444 67.9733 45.8557V45.8506C68.5028 44.7586 68.959 43.5342 69.3246 42.2092C69.802 40.46 70.051 38.7535 70.0829 37.2001C70.0881 37.1305 70.0881 37.0666 70.0881 36.998Z" fill="#543E36"/>
<path d="M48.4999 55.2284C51.4198 55.2284 53.7869 54.4967 53.7869 53.5941C53.7869 52.6915 51.4198 51.9598 48.4999 51.9598C45.58 51.9598 43.2129 52.6915 43.2129 53.5941C43.2129 54.4967 45.58 55.2284 48.4999 55.2284Z" fill="#ECC19C"/>
<path d="M33.063 80.0002V109.159H30.8105V81.6438C31.1127 81.4 31.4148 81.1613 31.7226 80.9334C32.1623 80.605 32.6072 80.2972 33.063 80.0002Z" fill="#435363"/>
<path d="M63.9395 80.0059V103.492V109.159H66.1919V103.492V81.6489L63.9395 80.0059Z" fill="#435363"/>
<path d="M42.333 78.2158L48.4995 85.6068L54.6665 78.2158H42.333Z" fill="#141720"/>
<path d="M48.5 116.224H44.8535L47.488 82.301C47.5988 82.7325 49.4017 82.7325 49.5126 82.301L52.147 116.224H48.5Z" fill="#141720"/>
<path d="M48.4979 78.1771L48.4825 78.2034L48.4768 78.2143L45.9166 82.5129L43.5259 86.5198L37.0537 77.525C37.2604 77.3765 37.4672 77.2177 37.6636 77.0532C37.6688 77.0584 37.6688 77.0584 37.6744 77.0641C38.9726 76.0304 40.1285 74.8168 41.0879 73.4598L48.4825 78.1668L48.4979 78.1771Z" fill="#E7ECF2"/>
<path d="M59.947 77.525L53.4747 86.5198L51.0841 82.5129L48.5182 78.2143L48.4971 78.1772L55.9396 73.4387C56.9042 74.806 58.0544 76.0252 59.3582 77.0692C59.5551 77.228 59.7505 77.3822 59.947 77.525Z" fill="#E7ECF2"/>
</svg>
